<svg version="1" xmlns="http://www.w3.org/2000/svg" width="1250.667" height="1250.667" viewBox="0 0 938.000000 938.000000"><path d="M835 159.6c-11.6 5.3-29.6 30.9-46.8 66.4-26.6 54.9-49.9 121.7-69.1 198.5-4.4 17.8-12.5 52.8-13.7 59.5-.3 1.4-2.1 10.1-4 19.5-1.9 9.3-3.7 18.6-4 20.5-.3 1.9-1.2 6.8-2 10.9-3.2 15.5-1.2 20.4 11.6 29 9.8 6.5 11.8 7.1 14.3 4.3 1.6-1.7 4.2-8.2 5.2-12.6.2-1.2.6-3.1.9-4.4 2.8-12.9 14.7-39.2 24.1-53.2 6.5-9.7 7.7-14.7 3.5-14.3-2.5.3-6.3 3.9-17 16.3-5.9 6.8-8 9-8.4 9-.2 0 .3-3 1.1-6.8.7-3.7 1.6-8.3 1.9-10.2.3-1.9 1.2-7.3 2.1-12 .8-4.7 1.7-9.6 2-11 .2-1.4 1.5-7.9 2.9-14.5s3.2-15.4 4-19.5c.9-4.1 3.8-16.3 6.5-27s5.2-20.4 5.4-21.5c.5-2.2 4.7-15.7 10.8-35 4.2-13.5 13.6-39.7 16.2-45.2.8-1.7 1.5-3.4 1.5-3.7 0-.3 2.8-7 6.1-14.8 15.1-35.2 38.1-76.1 49.6-88.3 5.4-5.7 12.7-10.3 17.6-11 4.3-.7 5.5-.3 19.7 5.1 5.6 2.1 9.6 1.4 10.2-2 .6-3.1.1-3.7-13.8-15.2-14.5-12.1-20.1-16-25.3-17.9-5.1-1.8-7.4-1.6-13.1 1.1zM360.2 283.7c-1.5 1.6-4.9 5.4-7.6 8.6-10.7 12.8-20.4 21.1-26.9 23.1-1.5.5-1.6.9-.6 2.8 1.8 3.3 2.9 4.1 8.9 6.7 13.6 5.9 27.8 1.2 45.7-15 11.5-10.4 11-14.6-2.7-23.1-10.8-6.6-12.8-7-16.8-3.1zM502.2 361.5c-3.4 1.5-21.9 19.4-28.2 27.4-1.9 2.4-4 4.8-4.5 5.5-7 7.7-27 37.2-39.5 58.1-11.7 19.6-12 20.1-12 19 0-.6.7-3.3 1.6-6 5-16.1 11.8-47.7 13.9-65 .4-2.8 1-6.7 1.5-8.9 1.1-5.3.7-13.1-.9-14.9-.7-.9-4.4-2.8-8.2-4.2-3.8-1.5-9-4.4-11.6-6.6-2.6-2.1-5.5-3.9-6.5-3.9-2.3 0-5.3 3-12.3 12.5-6.1 8.4-12.7 16.4-20.7 25.3-4.7 5.3-5.8 8.5-4.2 12.6 1.5 3.9 5.2 1.6 18.9-11.7 7.5-7.2 14.2-13.4 14.8-13.6.7-.2.8 3.6.3 12-.7 12.9-.9 14.6-2.7 25.6-.6 3.8-1.3 8.1-1.6 9.8-3.5 22.4-16.9 74.4-24.7 95.8-3.9 10.8-5.8 14.8-9.4 19.5-2 2.6-2.3 3.8-1.6 5 1.3 2.1 16.4 12.4 20.5 13.9 4.9 1.9 7.9-1.9 12.9-15.7 20-55.6 59.6-123.1 92.5-157.8 11.9-12.6 19.3-16.2 21.3-10.4 1 2.9.9 20.1-.2 32.2-1.3 14.8-1.7 18.6-2.1 20-.2.8-.7 4-1 7-.6 4.9-1.4 9.4-3 17-.2 1.4-1.2 5.9-2 10-.9 4.2-2.9 12.5-4.6 18.5-1.6 6.1-3.2 11.7-3.3 12.5-1 4.2-9 27.1-13.5 38.7-2.8 7.3-5.1 13.6-5.1 14.1 0 3.8 18.9 14.5 24.5 14 2.8-.3 3.2-.9 5.8-8.3 15.1-43.6 40-88.6 74.3-134 26.7-35.4 43.4-49.5 48.9-41.1 1.2 1.8 1.6 4.6 1.4 11.3-.7 31.9-16.8 92.9-39.3 149.7-4.3 10.6-6.6 17.6-6.2 19 .3 1.2 2.2 3.1 4.3 4.3 4.7 2.6 16.6 6.3 20.2 6.3 2.8 0 2.4.6 12.3-18 10.7-20 25.2-45.7 32-56.9 11.3-18.4 11.7-19.3 10.7-21.9-.8-2.2-3.2-2.8-6.3-1.6-.8.3-4.5 4.7-8 9.7-3.6 5.1-8.4 11.2-10.6 13.7-4.4 5-4.5 5.7.7-8 1.3-3.6 2.6-7.2 2.8-8 .3-.8 2-6.9 4-13.5 3.7-12.5 9-37.1 10-46.5.4-3 .8-6 1-6.7.8-2.5 2-19 1.9-26.8-.1-11.7-4.2-17.9-13.7-20.7-2.3-.6-6-2.6-8.2-4.3-12.5-9.8-18.4-8.6-33 6.6-9.1 9.5-19.4 21.2-25 28.3-1.6 2.1-3.4 4.4-4 5-5.3 5.8-27.7 37.3-40 56.1-4.3 6.6-8.1 12.3-8.5 12.7-.3.5.7-4.2 2.2-10.4 1.6-6.2 3.1-13.5 3.4-16.2.4-2.8.8-5.3.9-5.6.2-.3.6-3.3 1-6.5.3-3.3.8-6.9 1-8 1.9-9.3 2.5-42.9.9-48.3-1.6-5.5-4-7.5-16.6-13.9-11.7-6-14.9-6.8-19.6-4.8zM317.2 364.7c-1.2 1-2.4 3.4-2.7 5.3-.3 1.9-1.3 4.6-2.2 6-1.5 2.2-12 15.7-13.3 17-.3.3-3.4 4.1-7 8.5-9.1 11.2-10.1 12.4-13.7 16.5-4.7 5.4-6.5 10-5 13.1 1.5 2.9 4.1 3.5 7.4 1.8 1.4-.7 8.5-8.1 15.8-16.4 7.3-8.2 14.5-16.1 16-17.5l2.7-2.5-.6 3.5c-.3 1.9-1.2 7.1-2 11.5-.9 4.4-1.8 9.6-2.1 11.5-.6 3.4-7.1 34.4-8.1 38.5-.3 1.1-.7 3.1-1 4.5-.8 4.4-11.1 45.1-14.2 56.5-1.7 6-3.8 13.7-4.7 17-4.6 16.9-19.5 62.3-22.2 67.7-.7 1.5-1.4 3.1-1.4 3.5-.6 3.8-11.7 29.9-19.9 46.8-22.8 46.6-45.9 75-71.7 87.9-12.5 6.3-20.3 8.1-33.9 7.8-12.4-.2-25.5-4.3-39.9-12.4-6.1-3.5-19.1-12.2-20.5-13.7-.3-.4-2.1-1.8-4.2-3.3-2-1.5-4.4-3.5-5.2-4.4-2.7-2.6-8.8-3-10.9-.6-2.5 2.8-2.4 7.5.3 11.4 3.4 5 34.9 30.8 37.6 30.8.3 0 1.9.9 3.4 2 7.1 5.1 27.4 13.8 36.1 15.5 20.6 4.1 36.8 2.1 53.9-6.8 13-6.7 27.8-19.1 38.1-31.8 1.9-2.3 4-4.8 4.6-5.5 1.7-1.6 17.7-25.5 19.6-29.1.8-1.5 3.3-6.2 5.6-10.3 4-7 12.9-25.2 16.3-33 .9-1.9 2.6-5.8 3.8-8.5 9.2-20.5 23.7-62.4 34.4-99.8 6.5-22.5 16-58.2 17.7-66.4.4-2.4 1.5-6.7 2.4-9.7.9-3 1.8-6.8 2.1-8.3.3-1.5 1.8-8.2 3.4-14.8 2.7-10.8 11.2-48.3 12.4-54.5.3-1.4.8-3.6 1.1-5 1.1-4.9.7-13.8-.9-16.8-2.5-4.8-15.3-13.4-22.2-14.8-2.1-.4-3.6 0-5.2 1.3z"/></svg>